<svg xmlns="http://www.w3.org/2000/svg" viewBox="0 0 410 404">
  <path fill="#41D1FF" d="M399.8 161.1 264.8 25.5c-17.6-17.5-46-17.5-63.4 0l-28 27.8 35.5 35.6c8.2-2.8 17.6-.9 24.1 5.7 6.6 6.6 8.5 16.1 5.6 24.4l34.2 34.3c8.3-2.9 17.8-1 24.4 5.7 9.2 9.2 9.2 24.1 0 33.2-9.2 9.2-24 9.2-33.2 0-6.9-6.9-8.7-17-5.3-25.5l-31.9-32v84c2.3 1.1 4.4 2.6 6.3 4.5 9.2 9.2 9.2 24 0 33.2-9.2 9.2-24.1 9.2-33.2 0-9.2-9.2-9.2-24 0-33.2 2.4-2.4 5-4.2 7.9-5.5v-84.9c-2.8-1.3-5.5-3.1-7.9-5.5-7-7-8.6-17.3-5.1-25.8l-35-35.1L9.7 161.1c-17.5 17.5-17.5 45.8 0 63.5l135 135.5c17.5 17.5 45.8 17.5 63.4 0l135-135.3c17.6-17.7 17.6-46.1.1-63.7z"/>
  <path fill="#41D1FF" d="m108.2 252.2-.1.2"/>
</svg>