<svg xmlns="http://www.w3.org/2000/svg" viewBox="0 0 400 400">
  <path fill="#3178c6" d="M0 200V0h400v400H0"/>
  <path fill="#fff" d="M87.7 200.7V217h52v148h36.9V217h52v-16c0-9 0-16.3-.4-16.5 0-.3-31.7-.4-70.2-.4l-70 .3v16.4l-.3-.1zM321.4 184c10.2 2.4 18 7 25 14.3 3.7 4 9.2 11 9.6 12.8 0 .6-17.3 12.3-27.8 18.8-.4.3-2-1.4-3.6-4-5.2-7.4-10.5-10.6-18.8-11.2-12-.8-20 5.5-20 16 0 3.2.6 5 2.2 7.6 3.3 5.3 9.4 8.5 30.6 16.1 39.2 14 56 24.4 64.3 40.1 9.2 17.4 11.2 45.2 4.7 64.2-7.3 21-22.8 35.2-47 42.6-7.5 2.2-25.3 4-34 3.3-19.3-1.5-37.6-8-50.8-18.2-5.2-4-15.2-14-15-15 .3-.2 1.6-1 2.8-2l11.4-6.5 8.8-5 2 2.7c2.7 4 8.7 9.3 13 11.8 12.4 6.8 29.4 5.8 38-2 4-3.4 5.6-7 5.6-12.3 0-4.6-.7-6.7-3-10.2-3.2-4.4-9.6-8-27.6-15-20.7-8-29.7-13-38.7-21.3-5.3-5-10.6-13.4-13-20.9-2-6.3-2.5-22.2-.8-28.5 4.3-17.4 17.2-29.6 36.8-35 7.8-2 26.6-1.5 33.5.6v.3z"/>
</svg>